<svg width="48" height="48" viewBox="0 0 48 48" xmlns="http://www.w3.org/2000/svg"><rect fill="#F5ECE9" width="48" height="48" rx="24"/><path d="M14 11c-1.648 0-3 1.358-3 3.015v16.079c0 1.657 1.352 3.015 3 3.015h9.695L31 38v-4.891h3c1.648 0 3-1.358 3-3.015V14.015C37 12.358 35.648 11 34 11H14zm0 2.01h20c.563 0 1 .44 1 1.005v16.079a.99.99 0 01-1 1.005h-5v3.148L24.305 31.1H14a.99.99 0 01-1-1.005v-16.08a.99.99 0 011-1.005zm3 4.02v2.01h14v-2.01H17zm0 4.02v2.01h14v-2.01H17zm0 4.02v2.01h8v-2.01h-8z" fill="#BC7962"/></svg>