<svg width="48" height="48" viewBox="0 0 48 48" xmlns="http://www.w3.org/2000/svg"><rect fill="#F5ECE9" width="48" height="48" rx="24"/><path d="M29.933 11c-4.444 0-8.068 3.595-8.068 8.002 0 .71.189 1.352.362 1.985l-.488.484-3.908-3.884v-3.14l-.472-.29-4.712-2.923L10 13.814l3.23 5.188h3.175l3.916 3.876-7.359 7.298a3.99 3.99 0 000 5.658c1.568 1.555 4.137 1.555 5.704 0l5.216-5.173 5.215 5.173c1.568 1.555 4.136 1.555 5.704 0a3.99 3.99 0 000-5.658l-3.356-3.329C35.172 26.144 38 22.893 38 19.002c0-1.336-.362-2.579-.93-3.665l-.638-1.211-.969.969-4.333 4.29-1.584-1.571 5.303-5.267-1.221-.625C32.532 11.36 31.28 11 29.933 11zm0 2c.457 0 .85.22 1.284.329l-4.523 4.485 4.436 4.4 4.53-4.486c.102.43.323.82.323 1.274 0 3.329-2.694 6.001-6.05 6.001-.694 0-1.356-.14-2.018-.375l-.598-.203-10.077 9.994c-.796.79-2.056.79-2.852 0a1.974 1.974 0 010-2.828l10.077-9.995-.205-.594c-.237-.656-.378-1.313-.378-2 0-3.33 2.694-6.002 6.05-6.002zm-17.002.766l2.883 1.79v1.281l-.165.164h-1.284l-1.804-2.883.37-.352zm15 12.878c.205.055.41.102.615.156l4.83 4.79c.795.79.795 2.04 0 2.83a2.015 2.015 0 01-2.853 0l-5.215-5.174 2.623-2.602z" fill="#BC7962"/></svg>