<svg width="48" height="48" viewBox="0 0 48 48" xmlns="http://www.w3.org/2000/svg"><rect fill="#F5ECE9" width="48" height="48" rx="24"/><path d="M24 11c-7.172 0-13 5.828-13 13 0 4.516 2.313 8.5 5.82 10.836l.25.164h13.86l.25-.164C34.688 32.5 37 28.516 37 24c0-7.172-5.828-13-13-13zm0 2c6.086 0 11 4.914 11 11 0 3.75-1.906 7.016-4.773 9H17.766C14.906 31.016 13 27.75 13 24c0-6.086 4.914-11 11-11zm0 2a.997.997 0 00-1 1c0 .555.445 1 1 1a.997.997 0 001-1 .997.997 0 00-1-1zm5.977 1.992c-.258.008-.5.117-.688.305l-5.992 6a.995.995 0 00-.281.969 1.013 1.013 0 00.718.718.995.995 0 00.97-.28l6.007-6c.289-.282.375-.72.219-1.102a1.019 1.019 0 00-.953-.61zM18 17a.997.997 0 00-1 1c0 .555.445 1 1 1a.997.997 0 001-1 .997.997 0 00-1-1zm-2 6a.997.997 0 00-1 1c0 .555.445 1 1 1a.997.997 0 001-1 .997.997 0 00-1-1zm16 0a.997.997 0 00-1 1c0 .555.445 1 1 1a.997.997 0 001-1 .997.997 0 00-1-1zm-14 6a.997.997 0 00-1 1c0 .555.445 1 1 1a.997.997 0 001-1 .997.997 0 00-1-1zm12 0a.997.997 0 00-1 1c0 .555.445 1 1 1a.997.997 0 001-1 .997.997 0 00-1-1z" fill="#BC7962"/></svg>