<svg width="48" height="48" viewBox="0 0 48 48" xmlns="http://www.w3.org/2000/svg"><rect fill="#F5ECE9" width="48" height="48" rx="24"/><path d="M12 15c-1.645 0-3 1.355-3 3v10c0 1.645 1.355 3 3 3h11.102c-.038.333-.102.657-.102 1 0 4.959 4.041 9 9 9s9-4.041 9-9c0-2.12-.768-4.046-2-5.586V18c0-1.645-1.355-3-3-3H12zm0 2h24c.563 0 1 .437 1 1v6.523c-.634-.425-1.34-.737-2.074-.992A2 2 0 0035 23a2 2 0 10-4 0 2 2 0 00.004.102 8.91 8.91 0 00-2.09.476A2 2 0 0029 23a2 2 0 10-4 0 2 2 0 001.496 1.934A8.994 8.994 0 0023.551 29H12c-.563 0-1-.437-1-1V18c0-.563.437-1 1-1zm3 4a2 2 0 100 4 2 2 0 000-4zm6 0a2 2 0 100 4 2 2 0 000-4zm11 4c3.878 0 7 3.122 7 7s-3.122 7-7 7-7-3.122-7-7 3.122-7 7-7zm3.004 3.723l-3.684 3.683-2.293-2.293-1.414 1.414 3.707 3.707 5.098-5.097-1.414-1.414z" fill="#BC7962"/></svg>