<svg width="48" height="48" viewBox="0 0 48 48" xmlns="http://www.w3.org/2000/svg"><rect fill="#F5ECE9" width="48" height="48" rx="24"/><path d="M12.986 12c-1.5 2-1 5.25-.266 6.203C11.032 19.977 10 22.375 10 25.47 9.984 31.75 14.94 36 24 36c9.06 0 14-4.25 14-10.531 0-3.196-.985-5.594-2.595-7.328.594-.891 1.094-4.141-.407-6.141-3.752 0-6.003 2.75-6.003 2.75S27.244 14 23.992 14s-5.01.797-5.01.797S16.738 12 12.986 12zm5.503 11c2.431 0 2.517.953 5.331.992.063 0 .133-.008.203-.008h.4c2.547-.101 2.72-.984 5.072-.984a4.502 4.502 0 014.503 4.5c0 1.57 0 6.5-10.006 6.5-10.005 0-10.005-4.805-10.005-6.5 0-2.484 2.016-4.5 4.502-4.5zm.5 3c-.555 0-1 .898-1 2s.445 2 1 2c.555 0 1.001-.898 1.001-2s-.446-2-1-2zm10.006 0c-.555 0-1 .898-1 2s.445 2 1 2c.555 0 1-.898 1-2s-.445-2-1-2z" fill="#BC7962"/></svg>